<svg width="35" height="39" viewBox="0 0 35 39" fill="none" xmlns="http://www.w3.org/2000/svg">
<g id="user-solid 1" clip-path="url(#clip0_237_273)">
<path id="Vector" d="M17.0625 19.5C19.6484 19.5 22.1283 18.4728 23.9568 16.6443C25.7853 14.8158 26.8125 12.3359 26.8125 9.75C26.8125 7.16414 25.7853 4.68419 23.9568 2.85571C22.1283 1.02723 19.6484 0 17.0625 0C14.4766 0 11.9967 1.02723 10.1682 2.85571C8.33973 4.68419 7.3125 7.16414 7.3125 9.75C7.3125 12.3359 8.33973 14.8158 10.1682 16.6443C11.9967 18.4728 14.4766 19.5 17.0625 19.5ZM13.5814 23.1562C6.07852 23.1562 0 29.2348 0 36.7377C0 37.9869 1.01309 39 2.2623 39H31.8627C33.1119 39 34.125 37.9869 34.125 36.7377C34.125 29.2348 28.0465 23.1562 20.5436 23.1562H13.5814Z" fill="#1F1F1F"/>
</g>
<defs>
<clipPath id="clip0_237_273">
<rect width="34.125" height="39" fill="white"/>
</clipPath>
</defs>
</svg>
