<svg width="35" height="35" viewBox="0 0 35 35" fill="none" xmlns="http://www.w3.org/2000/svg">
<g id="key-solid 1" clip-path="url(#clip0_237_268)">
<path id="Vector" d="M22.9688 24.0625C29.6133 24.0625 35 18.6758 35 12.0312C35 5.38672 29.6133 0 22.9688 0C16.3242 0 10.9375 5.38672 10.9375 12.0312C10.9375 13.3096 11.1357 14.5469 11.5049 15.7021L0.478516 26.7285C0.170898 27.0361 0 27.4531 0 27.8906V33.3594C0 34.2686 0.731445 35 1.64062 35H7.10938C8.01855 35 8.75 34.2686 8.75 33.3594V30.625H11.4844C12.3936 30.625 13.125 29.8936 13.125 28.9844V26.25H15.8594C16.2969 26.25 16.7139 26.0791 17.0215 25.7715L19.2979 23.4951C20.4531 23.8643 21.6904 24.0625 22.9688 24.0625ZM25.7031 6.5625C26.4283 6.5625 27.1238 6.85058 27.6366 7.36338C28.1494 7.87617 28.4375 8.57167 28.4375 9.29688C28.4375 10.0221 28.1494 10.7176 27.6366 11.2304C27.1238 11.7432 26.4283 12.0312 25.7031 12.0312C24.9779 12.0312 24.2824 11.7432 23.7696 11.2304C23.2568 10.7176 22.9688 10.0221 22.9688 9.29688C22.9688 8.57167 23.2568 7.87617 23.7696 7.36338C24.2824 6.85058 24.9779 6.5625 25.7031 6.5625Z" fill="#1F1F1F"/>
</g>
<defs>
<clipPath id="clip0_237_268">
<rect width="35" height="35" fill="white"/>
</clipPath>
</defs>
</svg>
