<svg width="58" height="51" viewBox="0 0 58 51" fill="none" xmlns="http://www.w3.org/2000/svg">
<g id="hand-holding-dollar-solid 1" clip-path="url(#clip0_247_504)">
<path id="Vector" d="M31.0781 2.39062V3.43652C31.7156 3.55605 32.3332 3.70547 32.891 3.85488C34.166 4.19355 34.923 5.5084 34.5844 6.7834C34.2457 8.0584 32.9309 8.81543 31.6559 8.47676C30.5701 8.18789 29.5541 7.98867 28.6477 7.97871C27.9205 7.96875 27.1834 8.14805 26.7152 8.41699C26.5061 8.54648 26.4064 8.65605 26.3666 8.71582C26.3367 8.76562 26.2969 8.83535 26.2969 8.99473C26.2969 9.02461 26.2969 9.04453 26.2969 9.05449C26.3168 9.07441 26.3865 9.17402 26.6256 9.31348C27.2033 9.66211 28.06 9.93105 29.3549 10.3195L29.4445 10.3494C30.5502 10.6781 32.0244 11.1264 33.2197 11.8734C34.5844 12.7301 35.8195 14.1545 35.8494 16.3459C35.8793 18.5871 34.7139 20.2207 33.1898 21.177C32.5225 21.5854 31.8053 21.8742 31.0682 22.0535V23.1094C31.0682 24.4342 30.0023 25.5 28.6775 25.5C27.3527 25.5 26.2869 24.4342 26.2869 23.1094V21.9738C25.3406 21.7447 24.474 21.4459 23.7369 21.1969C23.5277 21.1271 23.3285 21.0574 23.1393 20.9977C21.8842 20.5793 21.2068 19.2246 21.6252 17.9695C22.0436 16.7145 23.3982 16.0371 24.6533 16.4555C24.9123 16.5451 25.1514 16.6248 25.3805 16.7045C26.7352 17.1627 27.7113 17.4914 28.7572 17.5312C29.5541 17.5611 30.2613 17.3719 30.6697 17.1229C30.859 17.0033 30.9486 16.9037 30.9885 16.834C31.0283 16.7742 31.0781 16.6547 31.0682 16.4256V16.4057C31.0682 16.3061 31.0682 16.1965 30.6697 15.9475C30.102 15.5889 29.2453 15.31 27.9703 14.9215L27.7811 14.8617C26.7053 14.543 25.2908 14.1146 24.1553 13.4273C22.8105 12.6205 21.5156 11.2359 21.5057 9.03457C21.4957 6.75352 22.7906 5.18965 24.2648 4.31309C24.9023 3.93457 25.5896 3.67559 26.277 3.49629V2.39062C26.277 1.06582 27.3428 0 28.6676 0C29.9924 0 31.0582 1.06582 31.0582 2.39062H31.0781ZM56.598 33.4986C57.9029 35.2717 57.5244 37.7619 55.7514 39.0668L43.1408 48.3604C40.81 50.0736 38.001 51 35.1023 51H19.125H3.1875C1.42441 51 0 49.5756 0 47.8125V41.4375C0 39.6744 1.42441 38.25 3.1875 38.25H6.85313L11.3256 34.6641C13.5867 32.8512 16.3957 31.875 19.2943 31.875H27.0938H28.6875H35.0625C36.8256 31.875 38.25 33.2994 38.25 35.0625C38.25 36.8256 36.8256 38.25 35.0625 38.25H28.6875H27.0938C26.2172 38.25 25.5 38.9672 25.5 39.8438C25.5 40.7203 26.2172 41.4375 27.0938 41.4375H39.1066L51.0299 32.652C52.8029 31.3471 55.2932 31.7256 56.598 33.4986ZM19.2844 38.25H19.1947C19.2246 38.25 19.2545 38.25 19.2844 38.25Z" fill="white"/>
</g>
<defs>
<clipPath id="clip0_247_504">
<rect width="57.375" height="51" fill="white"/>
</clipPath>
</defs>
</svg>
