<svg width="54" height="54" viewBox="0 0 54 54" fill="none" xmlns="http://www.w3.org/2000/svg">
<g id="car-solid 1">
<path id="Vector" d="M14.2594 12.382L11.5066 20.25H42.4934L39.7406 12.382C39.266 11.032 37.9898 10.125 36.5555 10.125H17.4445C16.0102 10.125 14.734 11.032 14.2594 12.382ZM4.17656 20.7563L7.88906 10.1566C9.31289 6.09609 13.1414 3.375 17.4445 3.375H36.5555C40.8586 3.375 44.6871 6.09609 46.1109 10.1566L49.8234 20.7563C52.2703 21.7688 54 24.184 54 27V42.1875V47.25C54 49.1168 52.4918 50.625 50.625 50.625H47.25C45.3832 50.625 43.875 49.1168 43.875 47.25V42.1875H10.125V47.25C10.125 49.1168 8.6168 50.625 6.75 50.625H3.375C1.5082 50.625 0 49.1168 0 47.25V42.1875V27C0 24.184 1.72969 21.7688 4.17656 20.7563ZM13.5 30.375C13.5 29.4799 13.1444 28.6215 12.5115 27.9885C11.8786 27.3556 11.0201 27 10.125 27C9.22989 27 8.37145 27.3556 7.73851 27.9885C7.10558 28.6215 6.75 29.4799 6.75 30.375C6.75 31.2701 7.10558 32.1285 7.73851 32.7615C8.37145 33.3944 9.22989 33.75 10.125 33.75C11.0201 33.75 11.8786 33.3944 12.5115 32.7615C13.1444 32.1285 13.5 31.2701 13.5 30.375ZM43.875 33.75C44.7701 33.75 45.6285 33.3944 46.2615 32.7615C46.8944 32.1285 47.25 31.2701 47.25 30.375C47.25 29.4799 46.8944 28.6215 46.2615 27.9885C45.6285 27.3556 44.7701 27 43.875 27C42.9799 27 42.1215 27.3556 41.4885 27.9885C40.8556 28.6215 40.5 29.4799 40.5 30.375C40.5 31.2701 40.8556 32.1285 41.4885 32.7615C42.1215 33.3944 42.9799 33.75 43.875 33.75Z" fill="white"/>
</g>
</svg>
