<svg width="29" height="26" viewBox="0 0 29 26" fill="none" xmlns="http://www.w3.org/2000/svg">
<g id="hand-holding-dollar-solid 2" clip-path="url(#clip0_247_614)">
<path id="Vector" d="M15.6777 1.44422V1.95629C15.9899 2.01481 16.2922 2.08797 16.5653 2.16112C17.1896 2.32693 17.5602 2.97068 17.3944 3.59492C17.2286 4.21916 16.5848 4.5898 15.9606 4.42399C15.429 4.28256 14.9316 4.18502 14.4878 4.18014C14.1318 4.17527 13.7709 4.26305 13.5417 4.39473C13.4393 4.45813 13.3905 4.51177 13.371 4.54103C13.3564 4.56542 13.3368 4.59955 13.3368 4.67758C13.3368 4.69221 13.3368 4.70197 13.3368 4.70685C13.3466 4.7166 13.3807 4.76537 13.4978 4.83364C13.7806 5.00433 14.2 5.13601 14.834 5.32621L14.8779 5.34084C15.4193 5.50177 16.141 5.72123 16.7263 6.087C17.3944 6.50641 17.9991 7.2038 18.0138 8.27671C18.0284 9.37401 17.4578 10.1738 16.7116 10.642C16.3849 10.8419 16.0338 10.9834 15.6729 11.0712V11.5881C15.6729 12.2367 15.151 12.7586 14.5024 12.7586C13.8538 12.7586 13.332 12.2367 13.332 11.5881V11.0321C12.8687 10.92 12.4444 10.7737 12.0835 10.6517C11.9811 10.6176 11.8835 10.5835 11.7909 10.5542C11.1764 10.3494 10.8448 9.68613 11.0496 9.07164C11.2544 8.45716 11.9177 8.12553 12.5322 8.33036C12.659 8.37425 12.776 8.41326 12.8882 8.45228C13.5514 8.67662 14.0294 8.83755 14.5414 8.85706C14.9316 8.87169 15.2778 8.77903 15.4778 8.65711C15.5704 8.59859 15.6143 8.54982 15.6338 8.51568C15.6534 8.48642 15.6777 8.42789 15.6729 8.31573V8.30597C15.6729 8.25721 15.6729 8.20356 15.4778 8.08164C15.1998 7.90607 14.7804 7.76952 14.1562 7.57932L14.0635 7.55006C13.5368 7.394 12.8443 7.18429 12.2883 6.84779C11.6299 6.45276 10.9959 5.77488 10.9911 4.69709C10.9862 3.58029 11.6202 2.81462 12.342 2.38546C12.6541 2.20014 12.9906 2.07334 13.3271 1.98555V1.44422C13.3271 0.795598 13.8489 0.273773 14.4975 0.273773C15.1462 0.273773 15.668 0.795598 15.668 1.44422H15.6777ZM28.1723 16.6747C28.8111 17.5428 28.6258 18.762 27.7577 19.4008L21.5836 23.951C20.4424 24.7898 19.0672 25.2433 17.648 25.2433H9.8255H2.02251C1.15931 25.2433 0.461914 24.5459 0.461914 23.6827V20.5615C0.461914 19.6983 1.15931 19.0009 2.02251 19.0009H3.8172L6.00691 17.2453C7.11396 16.3577 8.48924 15.8797 9.90841 15.8797H13.727H14.5073H17.6285C18.4917 15.8797 19.1891 16.5771 19.1891 17.4403C19.1891 18.3036 18.4917 19.0009 17.6285 19.0009H14.5073H13.727C13.2978 19.0009 12.9467 19.3521 12.9467 19.7812C12.9467 20.2104 13.2978 20.5615 13.727 20.5615H19.6085L25.4461 16.2601C26.3142 15.6213 27.5334 15.8066 28.1723 16.6747ZM9.90353 19.0009H9.85964C9.87427 19.0009 9.8889 19.0009 9.90353 19.0009Z" fill="#1F1F1F"/>
</g>
<defs>
<clipPath id="clip0_247_614">
<rect width="28.0908" height="24.9696" fill="white" transform="translate(0.461914 0.273773)"/>
</clipPath>
</defs>
</svg>
